<svg width="400" height="343" viewBox="0 0 400 343" fill="none" xmlns="http://www.w3.org/2000/svg">
<path fill-rule="evenodd" clip-rule="evenodd" d="M142.839 57.1475C145.943 57.1481 148.962 58.1599 151.44 60.0296C153.918 61.8993 155.719 64.5253 156.572 67.5102L172.057 121.724C175.391 133.4 181.645 144.033 190.23 152.619C198.815 161.205 209.447 167.46 221.121 170.795L275.327 186.282C278.31 187.136 280.933 188.939 282.801 191.417C284.668 193.895 285.678 196.913 285.678 200.016C285.678 203.119 284.668 206.138 282.801 208.616C280.933 211.094 278.31 212.896 275.327 213.751L221.121 229.238C209.447 232.572 198.815 238.828 190.23 247.414C181.645 256 175.391 266.633 172.057 278.308L156.572 332.522C155.717 335.505 153.915 338.129 151.437 339.997C148.96 341.864 145.942 342.875 142.839 342.875C139.737 342.875 136.718 341.864 134.241 339.997C131.763 338.129 129.961 335.505 129.107 332.522L113.622 278.308C110.288 266.633 104.033 256 95.4479 247.414C86.8631 238.828 76.2316 232.572 64.5576 229.238L10.351 213.751C7.36844 212.896 4.74509 211.094 2.8776 208.616C1.0101 206.138 0 203.119 0 200.016C0 196.913 1.0101 193.895 2.8776 191.417C4.74509 188.939 7.36844 187.136 10.351 186.282L64.5576 170.795C76.2316 167.46 86.8631 161.205 95.4479 152.619C104.033 144.033 110.288 133.4 113.622 121.724L129.107 67.5102C129.959 64.5253 131.76 61.8993 134.238 60.0296C136.716 58.1599 139.735 57.1481 142.839 57.1475ZM314.258 2.21706e-06C317.445 -0.00177274 320.541 1.06226 323.054 3.02284C325.566 4.98343 327.351 7.72797 328.124 10.8199L333.038 30.5549C337.533 48.4611 351.514 62.4432 369.417 66.9388L389.15 71.8534C392.247 72.6208 394.998 74.4033 396.965 76.9167C398.932 79.4301 400 82.5297 400 85.7212C400 88.9127 398.932 92.0123 396.965 94.5258C394.998 97.0392 392.247 98.8217 389.15 99.589L369.417 104.504C351.514 108.999 337.533 122.981 333.038 140.888L328.124 160.623C327.357 163.72 325.575 166.472 323.062 168.439C320.549 170.406 317.449 171.474 314.258 171.474C311.067 171.474 307.968 170.406 305.455 168.439C302.942 166.472 301.16 163.72 300.392 160.623L295.478 140.888C293.281 132.095 288.735 124.065 282.327 117.657C275.92 111.248 267.891 106.702 259.099 104.504L239.367 99.589C236.27 98.8217 233.518 97.0392 231.552 94.5258C229.585 92.0123 228.517 88.9127 228.517 85.7212C228.517 82.5297 229.585 79.4301 231.552 76.9167C233.518 74.4033 236.27 72.6208 239.367 71.8534L259.099 66.9388C267.891 64.7407 275.92 60.1944 282.327 53.7858C288.735 47.3772 293.281 39.3474 295.478 30.5549L300.392 10.8199C301.166 7.72797 302.951 4.98343 305.463 3.02284C307.976 1.06226 311.072 -0.00177274 314.258 2.21706e-06Z" fill="url(#paint0_linear_929_101)"/>
<defs>
<linearGradient id="paint0_linear_929_101" x1="110" y1="203.528" x2="562.5" y2="205.027" gradientUnits="userSpaceOnUse">
<stop stop-color="#F8FAFC"/>
<stop offset="1" stop-color="#F8FAFC"/>
</linearGradient>
</defs>
</svg>
